<svg id="图层_1" data-name="图层 1" xmlns="http://www.w3.org/2000/svg" viewBox="0 0 42.98 42.98"><defs><style>.cls-1{fill:#e61c17;}</style></defs><title>感叹号</title><path class="cls-1" d="M889.44,867.93a21.49,21.49,0,1,0-21.49-21.49A21.51,21.51,0,0,0,889.44,867.93Zm0-40A18.46,18.46,0,1,1,871,846.44,18.48,18.48,0,0,1,889.44,828Z" transform="translate(-867.95 -824.95)"/><path class="cls-1" d="M885.86,855.92a1.51,1.51,0,0,0,0,3h10a1.51,1.51,0,1,0,0-3h-3.47V842.55a1.51,1.51,0,0,0-1.51-1.51h-5a1.51,1.51,0,0,0,0,3h3.47v11.86Z" transform="translate(-867.95 -824.95)"/><path class="cls-1" d="M888.77,838.51a2.45,2.45,0,1,0-2.45-2.45A2.45,2.45,0,0,0,888.77,838.51Z" transform="translate(-867.95 -824.95)"/></svg>