<?xml version="1.0" standalone="no"?><!DOCTYPE svg PUBLIC "-//W3C//DTD SVG 1.1//EN" "http://www.w3.org/Graphics/SVG/1.1/DTD/svg11.dtd"><svg t="1484720822684" class="icon" style="" viewBox="0 0 1025 1024" version="1.1" xmlns="http://www.w3.org/2000/svg" p-id="2004" xmlns:xlink="http://www.w3.org/1999/xlink" width="12.01171875" height="12"><defs><style type="text/css"></style></defs><path d="M922.189312 556.3392C924.902912 530.8928 947.072512 512 972.774912 512 1003.546112 512 1027.507712 538.9312 1024.077312 569.4464 995.456512 825.1904 777.856512 1024 513.664512 1024 210.662912 1024-31.052288 762.5216 3.251712 453.5808 28.646912 224.6656 211.840512 36.4032 440.755712 5.0176 465.382912 1.6384 489.702912 0 513.664512 0 653.696512 0 780.621312 55.9616 873.190912 146.6368L873.190912 51.2C873.190912 22.9376 896.179712 0 924.544512 0 952.909312 0 975.898112 22.9376 975.898112 51.2L975.898112 248.2176C976.051712 249.6512 976.717312 250.8288 976.717312 252.3136L976.717312 259.6864C976.717312 279.9616 963.917312 296.96 945.997312 303.7696 939.443712 306.8416 932.275712 308.7872 924.544512 308.7872 921.728512 308.7872 919.270912 307.6608 916.557312 307.2L714.573312 307.2C688.256512 307.2 666.957312 285.952 666.957312 259.6864L666.957312 252.3136C666.957312 226.048 688.256512 204.8 714.573312 204.8L784.717312 204.8C712.371712 141.1584 617.498112 102.4 513.664512 102.4 491.904512 102.4 469.734912 104.0896 447.360512 107.6224 268.058112 135.7824 125.517312 285.2864 105.344512 465.1008 77.696512 711.8336 271.539712 921.6 513.664512 921.6 725.171712 921.6 899.917312 761.3952 922.189312 556.3392ZM513.664512 256C598.758912 256 667.725312 324.7616 667.725312 409.6L667.725312 460.8C696.090112 460.8 719.078912 483.7376 719.078912 512L719.078912 716.8C719.078912 745.0624 696.090112 768 667.725312 768L359.552512 768C331.187712 768 308.198912 745.0624 308.198912 716.8L308.198912 512C308.198912 483.7376 331.187712 460.8 359.552512 460.8L359.552512 409.6C359.552512 324.7616 428.570112 256 513.664512 256ZM513.664512 665.6C541.978112 665.6 565.018112 642.6624 565.018112 614.4 565.018112 586.1376 541.978112 563.2 513.664512 563.2 485.248512 563.2 462.310912 586.1376 462.310912 614.4 462.310912 642.6624 485.248512 665.6 513.664512 665.6ZM565.018112 460.8 565.018112 409.6C565.018112 381.3888 541.926912 358.4 513.664512 358.4 485.299712 358.4 462.310912 381.3888 462.310912 409.6L462.310912 460.8 565.018112 460.8Z" p-id="2005" fill="#4ba3ff"></path></svg>